<svg width="32" height="30" viewBox="0 0 32 30" fill="none" xmlns="http://www.w3.org/2000/svg">
<path d="M14.524 4.74109H4.78312C4.04499 4.74109 3.33709 5.01336 2.81516 5.49802C2.29322 5.98267 2 6.64001 2 7.32541V25.4157C2 26.1011 2.29322 26.7584 2.81516 27.2431C3.33709 27.7277 4.04499 28 4.78312 28H24.2649C25.0031 28 25.711 27.7277 26.2329 27.2431C26.7548 26.7584 27.0481 26.1011 27.0481 25.4157V16.3705M24.9607 2.80285C25.5143 2.28879 26.2652 2 27.0481 2C27.831 2 28.5818 2.28879 29.1354 2.80285C29.689 3.3169 30 4.01411 30 4.74109C30 5.46807 29.689 6.16528 29.1354 6.67933L15.9156 18.9549L10.3494 20.247L11.7409 15.0784L24.9607 2.80285Z" stroke="#B3B3B3" stroke-width="4" stroke-linecap="round" stroke-linejoin="round"/>
</svg>
