<svg width="72" height="16" viewBox="0 0 72 16" fill="none" xmlns="http://www.w3.org/2000/svg">
<path d="M2.52273 0.454545V15H0.761364V0.454545H2.52273ZM7.5032 8.4375V15H5.82706V4.09091H7.44638V5.79545H7.58842C7.84411 5.24148 8.23236 4.7964 8.7532 4.46023C9.27403 4.11932 9.94638 3.94886 10.7702 3.94886C11.5089 3.94886 12.1552 4.10038 12.7092 4.40341C13.2631 4.7017 13.694 5.15625 14.0018 5.76705C14.3095 6.37311 14.4634 7.14015 14.4634 8.06818V15H12.7873V8.18182C12.7873 7.32481 12.5647 6.6572 12.1197 6.17898C11.6746 5.69602 11.0638 5.45455 10.2873 5.45455C9.75225 5.45455 9.27403 5.57055 8.85263 5.80256C8.43596 6.03456 8.10689 6.37311 7.86541 6.81818C7.62393 7.26326 7.5032 7.80303 7.5032 8.4375ZM20.7365 15.2557C20.0452 15.2557 19.4179 15.1255 18.8544 14.8651C18.291 14.5999 17.8435 14.2188 17.5121 13.7216C17.1806 13.2197 17.0149 12.6136 17.0149 11.9034C17.0149 11.2784 17.138 10.7718 17.3842 10.3835C17.6304 9.99053 17.9595 9.68276 18.3714 9.46023C18.7834 9.23769 19.2379 9.07197 19.7351 8.96307C20.237 8.84943 20.7412 8.75947 21.2479 8.69318C21.9107 8.60795 22.4482 8.54403 22.8601 8.50142C23.2768 8.45407 23.5798 8.37595 23.7692 8.26705C23.9633 8.15814 24.0604 7.96875 24.0604 7.69886V7.64205C24.0604 6.94129 23.8686 6.39678 23.4851 6.00852C23.1063 5.62027 22.531 5.42614 21.7592 5.42614C20.959 5.42614 20.3317 5.60133 19.8771 5.9517C19.4226 6.30208 19.103 6.67614 18.9183 7.07386L17.3274 6.50568C17.6115 5.8428 17.9903 5.3267 18.4638 4.95739C18.942 4.58333 19.4628 4.32292 20.0263 4.17614C20.5945 4.02462 21.1532 3.94886 21.7024 3.94886C22.0528 3.94886 22.4553 3.99148 22.9098 4.0767C23.3691 4.1572 23.8118 4.32528 24.2379 4.58097C24.6688 4.83665 25.0263 5.22254 25.3104 5.73864C25.5945 6.25473 25.7365 6.94602 25.7365 7.8125V15H24.0604V13.5227H23.9751C23.8615 13.7595 23.6721 14.0128 23.407 14.2827C23.1418 14.5526 22.7891 14.7822 22.3487 14.9716C21.9084 15.161 21.371 15.2557 20.7365 15.2557ZM20.9922 13.75C21.6551 13.75 22.2138 13.6198 22.6683 13.3594C23.1276 13.099 23.4732 12.7628 23.7053 12.3509C23.942 11.9389 24.0604 11.5057 24.0604 11.0511V9.51705C23.9893 9.60227 23.8331 9.6804 23.5916 9.75142C23.3549 9.81771 23.0803 9.87689 22.7678 9.92898C22.46 9.97633 22.1593 10.0189 21.8658 10.0568C21.5769 10.09 21.3426 10.1184 21.1626 10.142C20.727 10.1989 20.3198 10.2912 19.9411 10.419C19.567 10.5421 19.264 10.7292 19.032 10.9801C18.8047 11.2263 18.6911 11.5625 18.6911 11.9886C18.6911 12.571 18.9065 13.0114 19.3374 13.3097C19.773 13.6032 20.3246 13.75 20.9922 13.75ZM33.2276 15.2273C32.2049 15.2273 31.3242 14.9858 30.5856 14.5028C29.8469 14.0199 29.2788 13.3546 28.881 12.5071C28.4833 11.6596 28.2844 10.6913 28.2844 9.60227C28.2844 8.49432 28.488 7.51657 28.8952 6.66903C29.3072 5.81676 29.8801 5.15152 30.614 4.6733C31.3526 4.19034 32.2144 3.94886 33.1992 3.94886C33.9663 3.94886 34.6576 4.09091 35.2731 4.375C35.8886 4.65909 36.3929 5.05682 36.7859 5.56818C37.1789 6.07955 37.4227 6.67614 37.5174 7.35795H35.8413C35.7134 6.8608 35.4293 6.42045 34.989 6.03693C34.5534 5.64867 33.9663 5.45455 33.2276 5.45455C32.5742 5.45455 32.0013 5.625 31.5089 5.96591C31.0212 6.30208 30.64 6.77794 30.3654 7.39347C30.0955 8.00426 29.9606 8.72159 29.9606 9.54545C29.9606 10.3883 30.0932 11.1222 30.3583 11.7472C30.6282 12.3722 31.007 12.8575 31.4947 13.2031C31.9871 13.5488 32.5647 13.7216 33.2276 13.7216C33.6632 13.7216 34.0586 13.6458 34.4137 13.4943C34.7688 13.3428 35.0695 13.125 35.3157 12.8409C35.5619 12.5568 35.7371 12.2159 35.8413 11.8182H37.5174C37.4227 12.4621 37.1883 13.0421 36.8143 13.5582C36.445 14.0696 35.9549 14.4768 35.3441 14.7798C34.738 15.0781 34.0326 15.2273 33.2276 15.2273ZM44.712 4.09091V5.51136H39.0586V4.09091H44.712ZM40.7063 1.47727H42.3825V11.875C42.3825 12.3485 42.4511 12.7036 42.5884 12.9403C42.7305 13.1723 42.9104 13.3286 43.1282 13.4091C43.3507 13.4848 43.5851 13.5227 43.8313 13.5227C44.016 13.5227 44.1675 13.5133 44.2859 13.4943C44.4042 13.4706 44.4989 13.4517 44.57 13.4375L44.9109 14.9432C44.7972 14.9858 44.6386 15.0284 44.435 15.071C44.2314 15.1184 43.9734 15.142 43.6609 15.142C43.1874 15.142 42.7234 15.0402 42.2688 14.8366C41.819 14.633 41.445 14.3229 41.1467 13.9062C40.8531 13.4896 40.7063 12.964 40.7063 12.3295V1.47727ZM47.2333 15V4.09091H48.9094V15H47.2333ZM48.0856 2.27273C47.7589 2.27273 47.4772 2.16146 47.2404 1.93892C47.0084 1.71638 46.8924 1.44886 46.8924 1.13636C46.8924 0.823864 47.0084 0.556345 47.2404 0.333806C47.4772 0.111269 47.7589 0 48.0856 0C48.4123 0 48.6916 0.111269 48.9237 0.333806C49.1604 0.556345 49.2788 0.823864 49.2788 1.13636C49.2788 1.44886 49.1604 1.71638 48.9237 1.93892C48.6916 2.16146 48.4123 2.27273 48.0856 2.27273ZM60.8999 4.09091L56.8658 15H55.1612L51.1271 4.09091H52.9453L55.9567 12.7841H56.0703L59.0817 4.09091H60.8999ZM67.2955 15.2273C66.2443 15.2273 65.3376 14.9953 64.5753 14.5312C63.8177 14.0625 63.233 13.4091 62.821 12.571C62.4138 11.7282 62.2102 10.7481 62.2102 9.63068C62.2102 8.51326 62.4138 7.52841 62.821 6.67614C63.233 5.81913 63.8059 5.15152 64.5398 4.6733C65.2784 4.19034 66.1402 3.94886 67.125 3.94886C67.6932 3.94886 68.2543 4.04356 68.8082 4.23295C69.3622 4.42235 69.8665 4.73011 70.321 5.15625C70.7756 5.57765 71.1378 6.13636 71.4077 6.83239C71.6776 7.52841 71.8125 8.38542 71.8125 9.40341V10.1136H63.4034V8.66477H70.108C70.108 8.04924 69.9848 7.5 69.7386 7.01705C69.4972 6.53409 69.1515 6.15294 68.7017 5.87358C68.2566 5.59422 67.7311 5.45455 67.125 5.45455C66.4574 5.45455 65.8797 5.62026 65.392 5.9517C64.9091 6.27841 64.5374 6.70455 64.277 7.23011C64.0166 7.75568 63.8864 8.31913 63.8864 8.92045V9.88636C63.8864 10.7102 64.0284 11.4086 64.3125 11.9815C64.6013 12.5497 65.0014 12.983 65.5128 13.2812C66.0241 13.5748 66.6184 13.7216 67.2955 13.7216C67.7358 13.7216 68.1335 13.66 68.4886 13.5369C68.8485 13.4091 69.1586 13.2197 69.419 12.9688C69.6795 12.7131 69.8807 12.3958 70.0227 12.017L71.642 12.4716C71.4716 13.0208 71.1851 13.5038 70.7827 13.9205C70.3802 14.3324 69.883 14.6544 69.2912 14.8864C68.6993 15.1136 68.0341 15.2273 67.2955 15.2273Z" fill="#808080"/>
</svg>
