<?xml version="1.0" encoding="UTF-8"?>
<svg version="1.1" xmlns="http://www.w3.org/2000/svg" width="96" height="96">
<path d="M0 0 C8.00468755 5.53696114 15.14335199 13.20971031 17.83984375 22.71484375 C18.34909742 25.70670905 18.25893452 27.62404931 17.83984375 30.71484375 C16.24609375 32.91296387 16.24609375 32.91296387 13.83984375 34.71484375 C10.65234375 35.22277832 10.65234375 35.22277832 6.83984375 35.23242188 C5.79521973 35.24293579 5.79521973 35.24293579 4.72949219 35.25366211 C2.43253443 35.27123571 0.13681354 35.25962294 -2.16015625 35.24609375 C-3.75911698 35.24878888 -5.35807612 35.25267148 -6.95703125 35.25769043 C-10.30614851 35.26358457 -13.65483868 35.25502567 -17.00390625 35.23632812 C-21.29494216 35.2135381 -25.58497736 35.22666171 -29.87597656 35.25061798 C-33.17715991 35.26507855 -36.47810636 35.2604689 -39.77929688 35.25010681 C-41.36132933 35.24744021 -42.94338336 35.25070697 -44.52539062 35.26002502 C-46.73755788 35.27019554 -48.94810925 35.25468565 -51.16015625 35.23242188 C-52.41828125 35.2292395 -53.67640625 35.22605713 -54.97265625 35.22277832 C-58.74037958 34.62238399 -59.92791196 33.76223152 -62.16015625 30.71484375 C-63.52784017 23.05581382 -60.22189554 17.09757692 -56.16015625 10.71484375 C-43.00806218 -6.27652038 -18.48283928 -10.99611957 0 0 Z M-49.16015625 10.71484375 C-52.61472795 15.02751035 -55.37616521 19.46530074 -57.16015625 24.71484375 C-56.86495857 27.44848695 -56.86495857 27.44848695 -56.16015625 29.71484375 C-52.9330262 30.79055377 -50.58580271 30.84815779 -47.19165039 30.86010742 C-45.3494265 30.8696772 -45.3494265 30.8696772 -43.46998596 30.87944031 C-42.12842854 30.88096897 -40.78687059 30.88208294 -39.4453125 30.8828125 C-38.06912705 30.88602615 -36.69294194 30.8893903 -35.3167572 30.89289856 C-32.43259896 30.89888516 -29.54847066 30.90073892 -26.66430664 30.90014648 C-22.97100313 30.90004484 -19.27789179 30.91370094 -15.58463383 30.93091869 C-12.74245829 30.94204374 -9.90032916 30.94406554 -7.05813408 30.94353676 C-5.69659195 30.94471596 -4.33504858 30.94913442 -2.97352791 30.95686913 C-1.06839605 30.96667936 0.83679219 30.96252404 2.74194336 30.95776367 C3.82543564 30.95918869 4.90892792 30.96061371 6.0252533 30.96208191 C8.81880844 30.71669153 10.46603954 30.15890518 12.83984375 28.71484375 C12.47252978 20.26662234 8.11269891 13.49053508 1.96484375 7.83984375 C-13.63004328 -4.82726755 -34.93172763 -3.18711997 -49.16015625 10.71484375 Z " fill="#FFFFFF" transform="translate(70.16015625,53.28515625)"/>
<path d="M0 0 C4.90713015 2.31973425 7.8111048 5.71776931 11 10 C12.99954039 15.99862118 13.25468158 23.5899733 11.05859375 29.55859375 C8.30479353 34.12524051 4.8081136 37.5959432 0 40 C-5.50158755 40.50239048 -10.38795569 40.76205731 -15.4375 38.375 C-20.05748114 34.09306626 -23.73407234 30.47013796 -24.23828125 23.890625 C-24.48979592 11.55316864 -24.48979592 11.55316864 -20 6 C-13.66384499 -0.15835474 -8.67666085 -0.8073957 0 0 Z M-17.875 11.0625 C-19.8497006 16.21866268 -20.04257652 21.89469143 -18.2734375 27.1640625 C-16.25476677 31.02087243 -14.04518244 33.4370886 -10 35 C-5.21156958 35.53204782 -3.01482508 35.49783872 1.3125 33.375 C4.9701786 30.14263287 6.66115673 27.5308664 7.31640625 22.63671875 C7.60273599 16.54990264 6.67781861 12.87062464 3 8 C-0.41856695 5.05623401 -3.49211711 4.46099354 -8.0078125 4.6484375 C-12.31869652 5.40918174 -15.01925843 7.92118427 -17.875 11.0625 Z " fill="#FFFFFF" transform="translate(54,4)"/>
</svg>
